<svg xmlns="http://www.w3.org/2000/svg" viewBox="0 0 560 160" role="img" aria-labelledby="title desc">
  <title id="title">SideMind</title>
  <desc id="desc">SideMind 浏览器 AI 工作台横向品牌标志</desc>
  <defs>
    <linearGradient id="surface" x1="20" y1="14" x2="132" y2="146" gradientUnits="userSpaceOnUse">
      <stop stop-color="#9A7BFF"/><stop offset="0.48" stop-color="#6B4FEA"/><stop offset="1" stop-color="#3048C9"/>
    </linearGradient>
    <linearGradient id="rail" x1="111" y1="41" x2="111" y2="116" gradientUnits="userSpaceOnUse">
      <stop stop-color="#A9F4FF"/><stop offset="1" stop-color="#57D2FF"/>
    </linearGradient>
  </defs>
  <g transform="translate(8 8) scale(1.125)">
    <rect width="128" height="128" rx="34" fill="url(#surface)"/>
    <rect x="3" y="3" width="122" height="122" rx="31" fill="none" stroke="#fff" stroke-opacity=".18" stroke-width="2"/>
    <path d="M75.5 38.5C68 31.5 54.5 30.2 45.8 35.7C37.5 41 38.5 51.4 45.7 56.1C52.8 60.8 65.1 61.4 72.7 66.3C81.1 71.7 80.7 83.6 72.3 89C63.1 94.9 48.2 93.2 40.5 84.5" fill="none" stroke="#fff" stroke-width="11" stroke-linecap="round" stroke-linejoin="round"/>
    <rect x="87" y="27" width="20" height="74" rx="10" fill="#fff" fill-opacity=".13" stroke="#fff" stroke-opacity=".2"/>
    <path d="M89 43H82M89 64H79M89 85H82" fill="none" stroke="#fff" stroke-opacity=".64" stroke-width="2.5" stroke-linecap="round"/>
    <circle cx="97" cy="43" r="4.5" fill="url(#rail)"/><circle cx="97" cy="64" r="4.5" fill="url(#rail)"/><circle cx="97" cy="85" r="4.5" fill="url(#rail)"/>
  </g>
  <text x="180" y="88" fill="#171721" font-family="Inter, Arial, sans-serif" font-size="58" font-weight="760" letter-spacing="-2">SideMind</text>
  <text x="184" y="120" fill="#777583" font-family="Inter, Arial, sans-serif" font-size="18" font-weight="520" letter-spacing="1.4">浏览器里的 AI 工作台</text>
</svg>
